<svg width="83" height="24" viewBox="0 0 83 24" fill="none" xmlns="http://www.w3.org/2000/svg">
<g clip-path="url(#clip0_85_62)">
<path d="M13.3125 10.875H20.25V13.125H13.3125V20.25H11.0625V13.125H3.75V10.875H11.0625V3.75H13.3125V10.875Z" fill="white"/>
<rect x="17.0625" y="5.39062" width="2.25" height="16.5" transform="rotate(45 17.0625 5.39062)" fill="white"/>
<rect width="2.25" height="8.31834" transform="matrix(-0.707107 0.707107 0.707107 0.707107 6.98621 5.39062)" fill="white"/>
<rect width="2.25" height="4.42191" rx="1.125" transform="matrix(-0.707107 0.707107 0.707107 0.707107 15.5267 13.9312)" fill="white"/>
<path d="M14.7188 13.125C13.9421 13.125 13.3125 13.7546 13.3125 14.5312V13.125H14.7188Z" fill="white"/>
<path d="M24.738 18V16.434L32.874 6.498L33.144 7.38H24.864V5.4H35.25V6.966L27.114 16.902L26.826 16.02H35.484V18H24.738ZM41.3917 18.126C40.5757 18.126 39.8557 17.976 39.2317 17.676C38.6077 17.364 38.1217 16.896 37.7737 16.272C37.4257 15.636 37.2517 14.838 37.2517 13.878V8.388H39.5017V13.572C39.5017 14.436 39.6937 15.084 40.0777 15.516C40.4737 15.936 41.0317 16.146 41.7517 16.146C42.2797 16.146 42.7357 16.038 43.1197 15.822C43.5157 15.606 43.8217 15.282 44.0377 14.85C44.2657 14.418 44.3797 13.884 44.3797 13.248V8.388H46.6297V18H44.4877V15.408L44.8657 16.2C44.5417 16.824 44.0677 17.304 43.4437 17.64C42.8197 17.964 42.1357 18.126 41.3917 18.126ZM49.5756 18V8.388H51.7176V11.034L51.4656 10.26C51.7536 9.612 52.2036 9.12 52.8156 8.784C53.4396 8.448 54.2136 8.28 55.1376 8.28V10.422C55.0416 10.398 54.9516 10.386 54.8676 10.386C54.7836 10.374 54.6996 10.368 54.6156 10.368C53.7636 10.368 53.0856 10.62 52.5816 11.124C52.0776 11.616 51.8256 12.354 51.8256 13.338V18H49.5756ZM59.9539 18L55.8319 8.388H58.1719L61.7179 16.866H60.5659L64.2379 8.388H66.3979L62.2759 18H59.9539ZM67.8041 18V8.388H70.0541V18H67.8041ZM68.9381 6.804C68.5181 6.804 68.1701 6.672 67.8941 6.408C67.6301 6.144 67.4981 5.826 67.4981 5.454C67.4981 5.07 67.6301 4.752 67.8941 4.5C68.1701 4.236 68.5181 4.104 68.9381 4.104C69.3581 4.104 69.7001 4.23 69.9641 4.482C70.2401 4.722 70.3781 5.028 70.3781 5.4C70.3781 5.796 70.2461 6.132 69.9821 6.408C69.7181 6.672 69.3701 6.804 68.9381 6.804ZM78.9293 18V16.056L78.8033 15.642V12.24C78.8033 11.58 78.6053 11.07 78.2093 10.71C77.8133 10.338 77.2133 10.152 76.4093 10.152C75.8693 10.152 75.3353 10.236 74.8073 10.404C74.2913 10.572 73.8533 10.806 73.4933 11.106L72.6113 9.468C73.1273 9.072 73.7393 8.778 74.4473 8.586C75.1673 8.382 75.9113 8.28 76.6793 8.28C78.0713 8.28 79.1453 8.616 79.9013 9.288C80.6693 9.948 81.0533 10.974 81.0533 12.366V18H78.9293ZM75.9053 18.126C75.1853 18.126 74.5553 18.006 74.0153 17.766C73.4753 17.514 73.0553 17.172 72.7553 16.74C72.4673 16.296 72.3233 15.798 72.3233 15.246C72.3233 14.706 72.4493 14.22 72.7013 13.788C72.9653 13.356 73.3913 13.014 73.9793 12.762C74.5673 12.51 75.3473 12.384 76.3193 12.384H79.1093V13.878H76.4813C75.7133 13.878 75.1973 14.004 74.9333 14.256C74.6693 14.496 74.5373 14.796 74.5373 15.156C74.5373 15.564 74.6993 15.888 75.0233 16.128C75.3473 16.368 75.7973 16.488 76.3733 16.488C76.9253 16.488 77.4173 16.362 77.8493 16.11C78.2933 15.858 78.6113 15.486 78.8033 14.994L79.1813 16.344C78.9653 16.908 78.5753 17.346 78.0113 17.658C77.4593 17.97 76.7573 18.126 75.9053 18.126Z" fill="white"/>
</g>
<defs>
<clipPath id="clip0_85_62">
<rect width="83" height="24" fill="white"/>
</clipPath>
</defs>
</svg>
